<?xml version="1.0" standalone="no"?>
<!DOCTYPE svg PUBLIC "-//W3C//DTD SVG 20010904//EN"
 "http://www.w3.org/TR/2001/REC-SVG-20010904/DTD/svg10.dtd">
<svg version="1.0" xmlns="http://www.w3.org/2000/svg"
 width="6912.000000pt" height="3456.000000pt" viewBox="0 0 6912.000000 3456.000000"
 preserveAspectRatio="xMidYMid meet">
<metadata>
Created by potrace 1.16, written by Peter Selinger 2001-2019
</metadata>
<g transform="translate(0.000000,3456.000000) scale(0.100000,-0.100000)"
fill="#000000" stroke="none">
<path d="M1060 33292 l-45 -7 -7 -135 c-4 -74 -13 -187 -22 -250 -8 -63 -12
-118 -10 -122 3 -4 27 -8 54 -8 43 0 50 3 55 23 5 23 51 221 64 272 9 39 41
54 160 73 111 18 424 22 654 8 l147 -8 0 -438 c0 -390 -2 -439 -16 -444 -27
-10 -502 -7 -577 5 -122 18 -138 39 -147 189 l-5 95 -50 0 -50 0 2 -135 c1
-74 -2 -229 -7 -344 -6 -127 -6 -214 0 -221 6 -7 28 -9 57 -6 l48 6 6 95 c3
52 9 105 13 116 16 46 37 49 390 49 l331 0 -2 -409 c-1 -243 -6 -413 -12 -419
-15 -15 -602 -14 -691 1 -97 17 -188 43 -200 57 -6 7 -13 71 -16 143 l-7 132
-54 0 c-29 0 -53 -1 -54 -2 0 -2 -2 -46 -5 -98 -5 -79 -22 -198 -51 -342 -5
-24 -2 -27 33 -35 22 -4 588 -7 1259 -7 l1220 1 0 39 0 39 -108 8 c-125 9
-172 24 -190 64 -9 21 -13 225 -15 868 -1 462 1 873 5 914 8 72 9 75 38 84
131 39 370 50 474 22 90 -24 156 -62 213 -124 62 -66 84 -123 94 -236 13 -148
-30 -269 -131 -370 -103 -104 -224 -145 -431 -145 l-132 0 -6 -26 c-6 -22 3
-37 61 -102 37 -43 74 -84 82 -92 26 -26 193 -240 327 -415 71 -93 159 -208
195 -255 36 -47 98 -127 136 -179 l70 -94 217 -1 216 -1 0 41 c0 41 -1 42 -41
48 -23 4 -50 11 -60 17 -17 9 -101 103 -161 180 -14 19 -100 126 -189 239
-235 294 -429 554 -421 562 4 4 47 19 96 33 214 62 376 183 453 340 47 94 56
141 51 262 -4 89 -9 118 -30 165 -60 130 -185 218 -373 261 -35 8 -329 11
-1000 12 -522 0 -1155 4 -1405 7 -250 4 -475 4 -500 0z m1771 -119 c65 -26 64
-3 64 -978 0 -948 1 -931 -55 -960 -55 -29 -330 -6 -370 30 -42 38 -45 106
-44 935 1 780 3 849 35 931 15 39 47 51 161 59 114 8 155 4 209 -17z"/>
<path d="M34250 25824 c-481 -26 -676 -44 -1045 -99 -288 -43 -302 -46 -570
-106 -522 -116 -948 -249 -1421 -442 -1281 -523 -2435 -1362 -3361 -2442
-1005 -1172 -1680 -2587 -1957 -4100 -82 -453 -145 -1074 -146 -1447 l0 -86
-317 4 c-175 2 -1040 9 -1923 14 -883 6 -2885 19 -4450 30 -1565 11 -3585 24
-4490 30 -1621 10 -3980 26 -8210 55 -1185 8 -2830 19 -3655 25 -825 5 -1771
12 -2102 16 l-603 6 0 -175 0 -174 837 -7 c461 -4 1810 -13 2998 -21 1188 -8
3458 -24 5045 -35 1587 -11 3619 -24 4515 -30 1792 -11 4942 -32 8170 -55
1150 -8 2561 -18 3137 -21 l1046 -7 6 -30 c3 -16 6 -62 6 -101 0 -242 67 -838
135 -1211 211 -1152 662 -2268 1310 -3245 744 -1121 1779 -2099 2920 -2760
1178 -682 2446 -1070 3835 -1172 261 -19 1002 -16 1250 6 1001 87 1785 268
2630 609 1532 616 2859 1653 3845 3007 949 1301 1504 2802 1645 4445 66 773
14 1678 -140 2442 -311 1542 -984 2901 -2026 4093 -264 302 -727 746 -1077
1034 -522 428 -1162 829 -1797 1127 -985 461 -1986 722 -3095 805 -188 14
-803 26 -945 18z m995 -548 c781 -74 1418 -211 2100 -454 2016 -716 3721
-2248 4659 -4184 485 -1001 750 -2028 816 -3163 20 -339 11 -844 -20 -1195
-184 -2046 -1109 -3925 -2625 -5330 -339 -314 -666 -571 -1065 -835 -702 -465
-1409 -795 -2216 -1034 -530 -157 -1076 -257 -1714 -313 -198 -17 -1056 -17
-1250 0 -672 59 -1136 144 -1730 317 -1002 291 -1976 801 -2810 1470 -740 594
-1402 1339 -1886 2125 -665 1079 -1062 2256 -1188 3525 -49 490 -51 1123 -5
1600 148 1540 697 2957 1620 4185 827 1101 1929 1993 3157 2556 809 372 1626
600 2522 704 143 16 235 24 540 44 142 9 945 -4 1095 -18z"/>
<path d="M30630 19630 c-209 -12 -273 -20 -287 -38 -9 -11 -13 -65 -13 -186
-1 -94 -5 -202 -10 -241 -6 -38 -19 -164 -30 -280 -10 -115 -26 -250 -33 -300
-8 -49 -17 -114 -20 -144 -6 -75 5 -83 128 -86 91 -3 99 -2 121 20 15 15 24
36 24 55 0 29 9 72 45 215 66 258 88 349 101 405 23 102 38 119 119 141 136
37 251 61 305 65 30 3 128 11 216 19 214 20 689 20 1169 0 209 -9 409 -19 445
-23 l65 -7 8 -90 c4 -49 6 -525 5 -1057 -2 -777 -6 -970 -16 -980 -19 -19
-1318 -19 -1407 0 -33 7 -93 19 -134 26 -102 19 -144 51 -194 146 l-39 75 -5
217 c-3 119 -9 222 -13 228 -5 8 -45 12 -114 12 -141 1 -151 -6 -142 -100 14
-156 18 -1048 6 -1237 -7 -104 -15 -221 -17 -258 -8 -125 -3 -130 145 -129 71
0 98 4 110 16 12 12 16 47 18 183 3 207 10 266 37 318 11 22 23 47 27 55 21
46 118 69 380 91 144 12 1142 5 1275 -9 l70 -7 0 -690 c0 -379 -4 -828 -9
-998 -9 -301 -9 -307 -30 -312 -11 -3 -111 -10 -221 -15 -561 -30 -923 -37
-1085 -20 -47 5 -146 14 -220 20 -74 6 -170 20 -212 31 -43 10 -95 19 -116 19
-20 0 -46 6 -57 14 -11 7 -38 16 -60 20 -77 13 -166 48 -179 69 -22 34 -36
172 -43 415 -5 173 -9 227 -20 238 -11 10 -43 14 -123 14 -137 0 -140 -2 -140
-113 -1 -203 -48 -642 -76 -704 -8 -17 -14 -45 -14 -62 0 -17 -9 -57 -20 -89
-28 -78 -36 -155 -19 -168 8 -6 64 -14 124 -18 61 -4 171 -11 245 -16 172 -11
886 -11 1805 0 472 6 797 5 945 -2 340 -15 1021 -15 1284 0 255 15 1157 11
1465 -6 227 -13 221 -16 221 98 0 54 -5 92 -12 102 -11 13 -50 17 -243 22
-313 8 -384 26 -451 113 -24 32 -31 56 -47 172 -19 130 -20 222 -24 1941 -4
1744 -1 2016 26 2308 5 51 14 99 21 107 6 8 37 19 68 25 31 6 73 17 92 25 19
8 71 19 116 25 45 6 96 16 115 22 21 7 149 13 339 15 282 4 312 3 400 -17 52
-12 113 -25 135 -30 172 -36 369 -161 495 -313 71 -86 150 -238 150 -288 0
-12 7 -30 15 -38 24 -28 41 -301 27 -463 -6 -74 -16 -148 -23 -164 -6 -16 -15
-42 -20 -59 -56 -208 -217 -424 -415 -558 -145 -98 -271 -148 -502 -198 -133
-30 -139 -30 -412 -28 -181 1 -284 -3 -297 -9 -25 -14 -38 -93 -22 -125 7 -12
37 -49 68 -83 105 -113 144 -157 188 -211 25 -30 62 -73 84 -95 21 -22 85 -97
141 -167 56 -69 109 -133 118 -141 10 -8 23 -25 30 -38 12 -24 22 -37 75 -101
17 -20 46 -56 65 -81 42 -55 58 -74 88 -106 12 -14 22 -29 22 -34 0 -5 17 -29
38 -54 20 -24 51 -63 67 -87 17 -23 44 -58 60 -79 17 -20 41 -52 55 -70 14
-19 43 -57 65 -85 22 -27 56 -72 75 -98 19 -27 55 -74 80 -105 25 -31 54 -69
65 -84 81 -108 188 -250 232 -306 189 -243 230 -298 248 -327 12 -19 32 -45
45 -58 14 -13 43 -50 65 -82 22 -32 52 -72 66 -89 14 -17 36 -46 48 -64 13
-18 33 -37 45 -41 11 -4 71 -1 131 6 151 20 562 19 723 -1 81 -10 132 -12 148
-6 23 9 24 13 24 103 0 104 -6 117 -59 117 -69 0 -166 22 -197 45 -61 46 -186
185 -300 335 -32 41 -80 101 -107 133 -51 59 -69 81 -146 184 -25 32 -53 67
-62 78 -18 20 -153 192 -200 255 -15 19 -39 49 -54 65 -14 17 -45 55 -68 85
-23 30 -55 71 -72 90 -16 20 -41 51 -55 69 -14 19 -35 46 -47 60 -24 29 -204
260 -280 359 -26 34 -61 79 -78 100 -16 22 -70 94 -120 161 -49 68 -106 142
-125 166 -19 24 -51 66 -70 95 -19 28 -48 67 -64 86 -46 55 -35 63 134 104
125 30 185 49 262 81 40 17 89 35 108 41 19 5 42 16 50 23 8 7 26 16 40 20 14
4 36 15 50 25 14 9 34 20 44 24 10 3 71 41 134 83 278 184 502 474 582 752 42
146 50 205 50 381 0 167 -21 298 -60 387 -11 25 -20 52 -20 60 0 25 -91 161
-164 245 -167 193 -457 344 -726 378 -36 5 -78 13 -94 19 -15 6 -94 16 -175
21 -80 5 -207 15 -281 21 -105 9 -189 9 -370 0 -129 -7 -629 -15 -1110 -18
-759 -4 -896 -3 -1035 11 -134 13 -171 14 -220 4 -81 -18 -1773 -17 -1985 0
-174 14 -1398 23 -1590 12z m3995 -261 c5 -5 21 -9 36 -9 14 0 54 -15 87 -33
90 -47 100 -70 125 -297 19 -177 20 -260 24 -1840 3 -1592 0 -1895 -27 -2284
-10 -136 -13 -154 -38 -193 -35 -57 -116 -99 -208 -108 -80 -9 -406 12 -492
31 -35 8 -81 14 -103 14 -52 0 -127 30 -177 69 -33 27 -41 41 -47 79 -3 26
-13 70 -20 97 -16 58 -32 302 -45 670 -11 317 4 2687 20 3125 7 190 17 327 26
363 8 32 14 65 14 73 0 8 14 50 31 93 30 77 32 79 87 104 66 30 181 47 392 57
158 8 300 3 315 -11z"/>
<path d="M43370 17106 l0 -176 223 0 c122 0 848 -5 1612 -10 765 -5 2711 -19
4325 -30 1614 -11 3905 -27 5090 -35 1185 -8 3476 -24 5090 -35 1614 -11 4209
-29 5765 -40 1557 -11 3013 -20 3238 -20 l407 0 0 169 0 169 -262 6 c-145 3
-1064 10 -2043 16 -1631 10 -3563 23 -9645 65 -3781 26 -7899 54 -10195 69
-1215 9 -2524 18 -2907 21 l-698 7 0 -176z"/>
<path d="M0 16581 l0 -169 183 -6 c100 -3 1658 -15 3462 -26 1804 -11 3872
-25 4595 -30 2230 -16 4233 -30 5950 -40 905 -5 2282 -14 3060 -20 778 -6
2740 -19 4360 -30 1620 -10 3214 -22 3543 -25 l597 -7 0 176 0 176 -147 0
c-82 0 -1088 7 -2238 15 -5659 40 -7736 54 -9585 65 -916 5 -2299 15 -3075 20
-775 6 -2735 19 -4355 30 -1620 11 -3541 24 -4270 30 -729 5 -1495 10 -1702
10 l-378 0 0 -169z"/>
<path d="M43370 16583 l0 -171 193 -6 c105 -3 1038 -10 2072 -16 1034 -6 2816
-17 3960 -25 1144 -8 3401 -24 5015 -35 1614 -11 3907 -27 5095 -35 1188 -8
3472 -24 5075 -35 1603 -10 3236 -22 3628 -26 l712 -6 0 176 0 176 -242 0
c-134 0 -1181 7 -2328 15 -2323 16 -5068 35 -9395 65 -2821 19 -5030 35 -9390
65 -1166 8 -2632 18 -3257 21 l-1138 7 0 -170z"/>
<path d="M4221 5174 c-51 -36 -51 -41 -51 -659 0 -631 0 -629 59 -659 16 -9
40 -16 53 -16 33 0 87 36 98 66 6 15 10 258 10 621 l0 595 -34 34 c-27 27 -42
34 -73 34 -21 0 -49 -7 -62 -16z"/>
<path d="M11955 5125 c-21 -20 -25 -34 -25 -80 0 -47 4 -60 26 -82 23 -23 31
-25 95 -21 91 5 104 18 104 104 0 87 -19 104 -112 104 -55 0 -67 -4 -88 -25z"/>
<path d="M1344 5101 c-17 -11 -36 -34 -43 -52 -8 -22 -11 -196 -11 -571 0
-591 0 -592 59 -622 42 -22 512 -23 614 -1 192 40 339 193 399 412 30 111 30
315 0 426 -60 219 -207 372 -399 412 -49 11 -141 15 -328 15 -238 0 -263 -2
-291 -19z m587 -208 c136 -44 219 -201 219 -413 0 -159 -46 -288 -129 -361
-66 -59 -114 -69 -323 -69 l-178 0 0 430 0 430 179 0 c142 0 190 -4 232 -17z"/>
<path d="M2926 4829 c-141 -20 -269 -116 -336 -253 -49 -99 -64 -173 -57 -291
6 -112 25 -175 79 -255 103 -154 317 -237 512 -197 96 20 198 66 237 108 39
42 40 99 3 134 -38 35 -80 32 -165 -12 -68 -36 -77 -38 -163 -38 -82 0 -96 3
-145 30 -64 35 -115 92 -135 151 l-14 43 321 3 c290 3 325 5 348 21 44 29 54
66 40 150 -43 265 -271 441 -525 406z m124 -200 c84 -19 157 -87 174 -161 l6
-28 -240 0 c-272 0 -260 -5 -213 82 49 90 159 133 273 107z"/>
<path d="M6187 4829 c-67 -11 -129 -43 -192 -101 l-55 -50 0 28 c0 113 -163
152 -205 50 -22 -52 -22 -800 -1 -851 29 -69 125 -84 177 -29 l24 26 5 298 5
298 30 44 c45 64 102 91 189 92 92 1 132 -20 166 -89 25 -49 25 -54 29 -344 3
-321 4 -328 61 -351 43 -18 94 -5 124 31 l26 31 0 301 c0 332 -8 399 -57 489
-15 28 -42 61 -59 74 -59 46 -173 68 -267 53z"/>
<path d="M7156 4829 c-141 -20 -269 -116 -336 -253 -49 -99 -64 -173 -57 -291
6 -112 25 -175 79 -255 103 -154 317 -237 512 -197 96 20 198 66 237 108 39
42 40 99 3 134 -38 35 -80 32 -165 -12 -68 -36 -77 -38 -163 -38 -82 0 -96 3
-145 30 -64 35 -115 92 -135 151 l-14 43 321 3 c290 3 325 5 348 21 44 29 54
66 40 150 -43 265 -271 441 -525 406z m124 -200 c84 -19 157 -87 174 -161 l6
-28 -240 0 c-272 0 -260 -5 -213 82 49 90 159 133 273 107z"/>
<path d="M8130 4829 c-110 -15 -209 -75 -256 -155 -47 -79 -43 -198 9 -275 43
-64 97 -94 267 -149 211 -68 250 -102 216 -185 -22 -51 -69 -69 -166 -63 -83
5 -137 27 -198 82 -66 59 -100 68 -151 41 -34 -17 -56 -65 -47 -100 11 -42 84
-113 151 -146 214 -105 486 -54 583 109 24 41 27 57 27 132 0 75 -3 91 -28
133 -48 81 -109 114 -341 182 -109 32 -146 64 -146 122 1 47 16 68 63 88 77
32 187 9 260 -55 36 -32 53 -40 84 -40 96 1 122 98 45 172 -84 82 -235 125
-372 107z"/>
<path d="M9588 4828 c-230 -30 -397 -276 -372 -548 21 -245 162 -413 378 -451
111 -19 234 16 320 91 l34 31 7 -29 c21 -96 163 -107 201 -17 21 52 21 823 -1
869 -19 40 -47 57 -96 58 -49 0 -82 -21 -99 -64 -7 -18 -14 -34 -15 -36 -1 -1
-24 12 -52 31 -84 57 -194 80 -305 65z m219 -219 c52 -25 88 -66 122 -139 22
-46 26 -69 26 -145 0 -79 -4 -97 -28 -147 -85 -173 -306 -210 -427 -72 -97
111 -105 295 -19 420 72 106 207 140 326 83z"/>
<path d="M12731 4829 c-150 -20 -271 -107 -343 -246 -47 -89 -63 -158 -62
-268 1 -228 117 -395 324 -466 206 -69 515 19 537 154 5 31 1 40 -25 67 -41
40 -75 39 -170 -7 -71 -35 -84 -38 -162 -38 -98 0 -152 21 -213 81 -33 33 -77
110 -77 134 0 6 104 10 298 10 173 0 312 4 334 10 53 15 78 51 78 115 0 193
-165 402 -351 444 -69 15 -110 18 -168 10z m168 -219 c45 -23 96 -76 110 -113
23 -59 32 -57 -230 -57 l-240 0 7 23 c20 65 60 119 107 144 70 36 180 37 246
3z"/>
<path d="M13888 4828 c-72 -9 -145 -46 -189 -95 l-34 -38 -15 45 c-12 36 -23
49 -53 64 -52 25 -109 10 -138 -37 -18 -31 -19 -49 -17 -449 l3 -416 24 -26
c32 -34 84 -43 128 -22 58 28 63 52 63 338 0 268 5 306 47 369 48 73 112 96
200 73 73 -19 96 -18 126 6 36 29 50 83 32 126 -22 54 -82 75 -177 62z"/>
<path d="M14697 4829 c-67 -11 -129 -43 -192 -101 l-55 -50 0 28 c0 113 -163
152 -205 50 -22 -52 -22 -800 -1 -851 29 -69 125 -84 177 -29 l24 26 5 298 5
298 30 44 c45 64 102 91 189 92 92 1 132 -20 166 -89 25 -49 25 -54 29 -344 3
-321 4 -328 61 -351 43 -18 94 -5 124 31 l26 31 0 301 c0 332 -8 399 -57 489
-15 28 -42 61 -59 74 -59 46 -173 68 -267 53z"/>
<path d="M15666 4829 c-141 -20 -269 -116 -336 -253 -49 -99 -64 -173 -57
-291 6 -112 25 -175 79 -255 103 -154 317 -237 512 -197 96 20 198 66 237 108
39 42 40 99 3 134 -38 35 -80 32 -165 -12 -68 -36 -77 -38 -163 -38 -82 0 -96
3 -145 30 -64 35 -115 92 -135 151 l-14 43 321 3 c290 3 325 5 348 21 44 29
54 66 40 150 -43 265 -271 441 -525 406z m124 -200 c84 -19 157 -87 174 -161
l6 -28 -240 0 c-272 0 -260 -5 -213 82 49 90 159 133 273 107z"/>
<path d="M16636 4828 c-166 -22 -286 -138 -286 -278 0 -78 16 -125 57 -171 52
-58 100 -81 265 -134 174 -54 208 -77 208 -137 0 -52 -14 -77 -55 -94 -45 -18
-150 -18 -206 1 -24 8 -75 40 -113 70 -83 66 -120 72 -167 26 -44 -45 -40 -89
13 -147 50 -54 108 -90 186 -114 318 -98 604 92 528 352 -13 45 -27 66 -71
106 -51 47 -67 54 -216 103 -189 61 -219 81 -219 143 0 55 21 83 73 97 84 22
186 -5 261 -71 67 -59 160 -27 160 55 0 44 -27 81 -89 123 -84 57 -216 85
-329 70z"/>
<path d="M4713 4805 c-60 -26 -63 -44 -63 -343 0 -288 7 -358 47 -437 51 -104
134 -164 265 -191 200 -43 395 34 473 186 40 77 45 125 45 432 l0 298 -29 32
c-25 28 -36 33 -75 33 -36 0 -51 -6 -73 -28 l-28 -27 -5 -298 c-6 -324 -9
-343 -66 -395 -35 -33 -116 -52 -177 -43 -61 9 -107 42 -134 96 -22 43 -23 54
-23 322 0 316 -4 338 -64 363 -43 18 -52 18 -93 0z"/>
<path d="M10916 4805 c-41 -22 -55 -44 -56 -86 0 -50 349 -824 387 -858 22
-19 34 -22 71 -18 29 3 53 13 68 28 31 32 384 812 384 849 0 18 -11 42 -27 60
-37 41 -103 45 -138 9 -13 -13 -76 -145 -140 -294 -64 -148 -123 -281 -130
-294 -16 -31 -2 -56 -150 284 -70 161 -128 281 -144 297 -33 34 -86 44 -125
23z"/>
<path d="M12005 4810 c-11 -4 -31 -20 -45 -35 l-25 -27 0 -416 c0 -385 1 -419
18 -443 40 -59 125 -63 171 -8 l26 31 0 417 c0 456 2 444 -60 476 -32 17 -55
18 -85 5z"/>
<path d="M2011 3056 c-46 -25 -50 -48 -51 -253 0 -106 -3 -193 -6 -193 -3 0
-24 13 -47 29 -101 68 -255 93 -370 58 -277 -86 -404 -467 -251 -757 109 -208
357 -295 556 -194 26 13 63 38 83 55 32 28 35 29 35 11 0 -32 47 -81 85 -88
42 -8 98 18 114 52 8 18 11 199 11 630 l0 606 -29 29 c-33 32 -87 39 -130 15z
m-202 -566 c149 -76 203 -289 114 -452 -35 -64 -84 -105 -152 -125 -170 -49
-326 72 -339 263 -8 124 33 228 113 289 72 56 184 66 264 25z"/>
<path d="M4234 3002 c-199 -69 -322 -271 -285 -470 50 -273 348 -438 554 -306
20 13 37 21 37 17 0 -5 -14 -33 -32 -63 -59 -103 -184 -202 -303 -240 -89 -28
-124 -79 -105 -149 11 -42 54 -71 102 -71 32 0 119 30 188 65 220 110 371 358
399 655 25 267 -92 490 -293 560 -71 26 -191 26 -262 2z m231 -205 c21 -12 53
-42 70 -65 28 -41 30 -50 30 -132 0 -82 -2 -91 -30 -132 -43 -61 -95 -88 -171
-88 -50 0 -68 5 -100 26 -47 32 -59 47 -84 99 -24 49 -26 132 -4 183 19 46 69
100 109 118 48 21 134 17 180 -9z"/>
<path d="M12354 2976 c-225 -83 -383 -270 -450 -531 -67 -262 -28 -481 111
-620 204 -203 538 -142 667 123 31 63 33 73 33 177 0 104 -2 114 -32 176 -43
88 -123 168 -210 210 -58 29 -78 34 -143 34 -75 0 -122 -13 -172 -47 -38 -26
-41 -23 -19 20 54 106 188 223 294 258 98 31 137 68 137 129 0 91 -87 119
-216 71z m7 -636 c44 -12 106 -71 126 -119 23 -53 20 -148 -5 -197 -82 -161
-293 -162 -368 -1 -84 181 62 368 247 317z"/>
<path d="M2770 2709 c-114 -14 -222 -74 -291 -162 -54 -68 -76 -114 -100 -204
-57 -226 22 -450 201 -565 114 -73 314 -95 450 -49 141 48 217 126 189 193
-28 67 -78 74 -182 23 -127 -62 -256 -57 -354 14 -43 31 -86 95 -98 144 l-7
27 298 0 c174 0 314 4 336 10 72 20 91 75 67 192 -50 241 -273 406 -509 377z
m126 -204 c27 -8 66 -29 88 -47 35 -29 75 -95 76 -125 0 -10 -55 -13 -240 -13
-158 0 -240 4 -240 10 0 6 7 27 16 48 46 110 174 165 300 127z"/>
<path d="M5829 2710 c-124 -15 -257 -112 -317 -233 -111 -220 -73 -498 89
-652 151 -144 356 -162 523 -45 64 45 66 46 66 25 0 -26 29 -62 60 -75 43 -18
94 -5 124 31 l26 31 0 427 c0 418 -1 429 -21 455 -24 31 -73 46 -114 35 -35
-10 -75 -52 -75 -80 0 -10 -2 -19 -4 -19 -2 0 -30 16 -62 35 -93 56 -189 77
-295 65z m200 -216 c49 -21 98 -69 129 -129 34 -66 43 -198 18 -273 -63 -189
-295 -252 -430 -117 -60 60 -86 131 -86 234 0 97 20 157 72 216 80 90 186 115
297 69z"/>
<path d="M8067 2709 c-67 -11 -128 -43 -187 -98 -38 -36 -50 -43 -50 -29 0
110 -144 156 -201 65 -18 -31 -19 -49 -17 -449 l3 -416 24 -26 c32 -34 84 -43
128 -22 59 28 63 51 63 353 0 238 3 273 19 308 63 140 281 166 348 43 16 -29
19 -69 23 -338 4 -272 7 -308 23 -331 40 -59 125 -63 171 -8 l26 31 0 264 c0
310 5 339 65 400 34 33 54 45 98 54 102 21 174 -7 210 -80 21 -43 22 -60 27
-347 l5 -303 26 -26 c58 -57 157 -33 178 43 14 48 14 479 1 595 -14 122 -42
193 -99 248 -56 55 -106 72 -213 72 -107 1 -182 -36 -267 -128 l-59 -65 -12
36 c-35 107 -187 178 -333 154z"/>
<path d="M10589 2710 c-124 -15 -257 -112 -317 -233 -111 -220 -73 -498 89
-652 151 -144 356 -162 523 -45 64 45 66 46 66 25 0 -26 29 -62 60 -75 43 -18
94 -5 124 31 l26 31 0 427 c0 418 -1 429 -21 455 -24 31 -73 46 -114 35 -35
-10 -75 -52 -75 -80 0 -10 -2 -19 -4 -19 -2 0 -30 16 -62 35 -93 56 -189 77
-295 65z m200 -216 c49 -21 98 -69 129 -129 34 -66 43 -198 18 -273 -63 -189
-295 -252 -430 -117 -60 60 -86 131 -86 234 0 97 20 157 72 216 80 90 186 115
297 69z"/>
<path d="M13879 2710 c-63 -11 -134 -43 -185 -85 -49 -41 -54 -42 -54 -15 0
11 -13 34 -29 52 -25 28 -36 33 -76 33 -40 0 -51 -5 -76 -33 l-29 -32 0 -606
0 -606 29 -29 c24 -24 38 -29 76 -29 38 0 52 5 76 29 l29 29 0 201 c0 111 4
201 8 201 5 0 17 -8 26 -19 9 -10 45 -33 79 -50 241 -122 509 2 603 279 29 86
26 294 -6 375 -84 216 -271 337 -471 305z m141 -220 c54 -28 117 -104 135
-163 8 -28 15 -80 15 -117 0 -92 -22 -158 -71 -214 -60 -68 -108 -90 -194 -90
-108 -1 -187 51 -237 153 -31 62 -37 198 -13 270 28 84 108 161 190 182 44 12
131 1 175 -21z"/>
<path d="M15989 2710 c-64 -11 -124 -44 -186 -103 l-53 -50 0 34 c0 98 -122
142 -184 68 l-26 -31 0 -419 c0 -461 -1 -454 60 -479 43 -18 94 -5 124 31 l26
31 0 266 c0 148 5 283 10 303 27 97 104 153 210 153 79 0 118 -20 152 -78 22
-40 23 -49 28 -348 l5 -306 24 -26 c32 -34 84 -43 128 -22 59 28 63 51 63 356
0 251 1 274 20 310 29 56 67 88 128 106 99 29 188 -2 222 -79 18 -38 20 -68
20 -317 0 -161 4 -291 11 -313 22 -81 125 -101 182 -37 l29 32 -4 332 c-5 362
-8 385 -67 478 -39 61 -100 96 -186 107 -80 9 -151 0 -211 -29 -45 -22 -129
-97 -156 -140 l-16 -25 -15 36 c-20 48 -72 106 -117 129 -56 28 -152 42 -221
30z"/>
<path d="M6680 1958 c-33 -18 -50 -54 -50 -110 0 -62 16 -94 55 -113 67 -31
152 -10 175 44 18 46 9 137 -18 163 -26 27 -124 36 -162 16z"/>
<path d="M9328 1955 c-53 -29 -64 -151 -18 -200 44 -46 160 -42 195 8 10 14
15 45 15 85 0 57 -3 67 -29 93 -25 25 -37 29 -83 29 -29 -1 -65 -7 -80 -15z"/>
<path d="M14604 1958 c-32 -15 -47 -51 -47 -112 0 -69 20 -101 72 -117 79 -23
146 8 161 76 16 71 -1 129 -47 153 -26 15 -110 14 -139 0z"/>
<path d="M17239 1941 c-26 -26 -29 -36 -29 -93 0 -40 5 -71 15 -85 35 -50 151
-54 195 -8 27 29 37 99 20 149 -15 46 -52 66 -120 66 -44 0 -56 -5 -81 -29z"/>
</g>
</svg>
